<svg width="503" height="179" viewBox="0 0 503 179" fill="none" xmlns="http://www.w3.org/2000/svg">
<path d="M58.9335 71.9565C63.5684 47.3196 87.2979 31.1047 111.935 35.7396L97.2166 113.975C92.5817 138.612 68.8521 154.827 44.2151 150.192L58.9335 71.9565Z" fill="url(#paint0_linear_77_15)"/>
<path d="M36 5.63877e-06C16.1177 6.50785e-06 -8.69081e-07 16.1178 0 36L129 36C148.882 36 165 19.8823 165 0L36 5.63877e-06Z" fill="url(#paint1_linear_77_15)"/>
<path d="M36 5.63877e-06C16.1177 6.50785e-06 -8.69081e-07 16.1178 0 36L129 36C148.882 36 165 19.8823 165 0L36 5.63877e-06Z" fill="url(#paint2_linear_77_15)" fill-opacity="0.2"/>
<path d="M168.977 130.129V94.8262C168.977 92.2871 168.562 90.1143 167.731 88.3076C166.901 86.4521 165.607 85.0117 163.85 83.9863C162.141 82.9609 159.919 82.4482 157.185 82.4482C154.841 82.4482 152.814 82.8633 151.105 83.6934C149.396 84.4746 148.078 85.6221 147.15 87.1357C146.223 88.6006 145.759 90.334 145.759 92.3359H124.665C124.665 88.9668 125.446 85.7686 127.009 82.7412C128.571 79.7139 130.842 77.0527 133.82 74.7578C136.799 72.4141 140.339 70.583 144.44 69.2646C148.591 67.9463 153.229 67.2871 158.356 67.2871C164.509 67.2871 169.978 68.3125 174.763 70.3633C179.548 72.4141 183.308 75.4902 186.042 79.5918C188.825 83.6934 190.217 88.8203 190.217 94.9727V128.884C190.217 133.229 190.485 136.794 191.022 139.577C191.56 142.312 192.341 144.704 193.366 146.755V148H172.053C171.027 145.852 170.246 143.166 169.709 139.943C169.221 136.672 168.977 133.4 168.977 130.129ZM171.76 99.7334L171.906 111.672H160.114C157.331 111.672 154.914 111.989 152.863 112.624C150.812 113.259 149.128 114.162 147.81 115.334C146.491 116.457 145.515 117.775 144.88 119.289C144.294 120.803 144.001 122.463 144.001 124.27C144.001 126.076 144.416 127.712 145.246 129.177C146.076 130.593 147.272 131.716 148.835 132.546C150.397 133.327 152.229 133.718 154.328 133.718C157.502 133.718 160.261 133.083 162.604 131.813C164.948 130.544 166.755 128.981 168.024 127.126C169.343 125.271 170.026 123.513 170.075 121.853L175.642 130.788C174.86 132.79 173.786 134.865 172.419 137.014C171.101 139.162 169.416 141.188 167.365 143.093C165.314 144.948 162.849 146.486 159.968 147.707C157.087 148.879 153.669 149.465 149.714 149.465C144.685 149.465 140.119 148.464 136.018 146.462C131.965 144.411 128.742 141.604 126.35 138.039C124.006 134.426 122.834 130.324 122.834 125.734C122.834 121.584 123.615 117.897 125.178 114.675C126.74 111.452 129.035 108.742 132.062 106.545C135.139 104.299 138.972 102.614 143.562 101.491C148.151 100.319 153.474 99.7334 159.528 99.7334H171.76ZM245.778 178.469V84.9385L248.488 68.752H267.019V178.469H245.778ZM195.681 109.182V107.644C195.681 101.589 196.34 96.0957 197.658 91.1641C199.025 86.1836 201.027 81.9355 203.664 78.4199C206.301 74.8555 209.523 72.1211 213.332 70.2168C217.189 68.2637 221.633 67.2871 226.662 67.2871C231.496 67.2871 235.671 68.2637 239.187 70.2168C242.702 72.1699 245.656 74.9287 248.049 78.4932C250.49 82.0576 252.443 86.2568 253.908 91.0908C255.373 95.9248 256.496 101.223 257.277 106.984V110.354C256.545 115.871 255.422 120.998 253.908 125.734C252.443 130.471 250.49 134.621 248.049 138.186C245.656 141.75 242.678 144.533 239.113 146.535C235.598 148.488 231.398 149.465 226.516 149.465C221.584 149.465 217.189 148.464 213.332 146.462C209.523 144.411 206.301 141.579 203.664 137.966C201.027 134.353 199.025 130.104 197.658 125.222C196.34 120.29 195.681 114.943 195.681 109.182ZM216.774 107.644V109.182C216.774 112.453 217.043 115.529 217.58 118.41C218.117 121.242 218.972 123.757 220.144 125.954C221.364 128.151 222.927 129.885 224.831 131.154C226.735 132.375 229.079 132.985 231.862 132.985C235.72 132.985 238.82 132.155 241.164 130.495C243.557 128.786 245.314 126.467 246.438 123.537C247.609 120.607 248.293 117.263 248.488 113.503V103.908C248.342 100.832 247.927 98.0732 247.243 95.6318C246.608 93.1416 245.632 91.0176 244.313 89.2598C243.044 87.502 241.384 86.1592 239.333 85.2314C237.331 84.2549 234.89 83.7666 232.009 83.7666C229.274 83.7666 226.931 84.377 224.978 85.5977C223.024 86.8184 221.438 88.5273 220.217 90.7246C219.045 92.873 218.166 95.3877 217.58 98.2686C217.043 101.149 216.774 104.274 216.774 107.644ZM296.799 85.6709V148H275.705V68.752H295.48L296.799 85.6709ZM293.723 105.593H288.01C288.01 99.7334 288.767 94.46 290.28 89.7725C291.794 85.0361 293.918 81.0078 296.652 77.6875C299.387 74.3184 302.634 71.7549 306.394 69.9971C310.202 68.1904 314.45 67.2871 319.138 67.2871C322.849 67.2871 326.242 67.8242 329.318 68.8984C332.395 69.9727 335.031 71.6816 337.229 74.0254C339.475 76.3691 341.184 79.4697 342.355 83.3271C343.576 87.1846 344.187 91.8965 344.187 97.4629V148H322.946V97.3896C322.946 93.874 322.458 91.1396 321.481 89.1865C320.505 87.2334 319.064 85.8662 317.16 85.085C315.305 84.2549 313.01 83.8398 310.275 83.8398C307.443 83.8398 304.978 84.4014 302.878 85.5244C300.827 86.6475 299.118 88.21 297.751 90.2119C296.433 92.165 295.432 94.46 294.748 97.0967C294.064 99.7334 293.723 102.565 293.723 105.593ZM389.201 149.465C383.049 149.465 377.531 148.488 372.648 146.535C367.766 144.533 363.615 141.774 360.197 138.259C356.828 134.743 354.24 130.666 352.434 126.027C350.627 121.34 349.724 116.359 349.724 111.086V108.156C349.724 102.15 350.578 96.6572 352.287 91.6768C353.996 86.6963 356.438 82.375 359.611 78.7129C362.834 75.0508 366.74 72.2432 371.33 70.29C375.92 68.2881 381.096 67.2871 386.857 67.2871C392.473 67.2871 397.453 68.2148 401.799 70.0703C406.145 71.9258 409.782 74.5625 412.712 77.9805C415.69 81.3984 417.937 85.5 419.45 90.2852C420.964 95.0215 421.721 100.295 421.721 106.105V114.895H358.732V100.832H400.993V99.2207C400.993 96.291 400.456 93.6787 399.382 91.3838C398.356 89.04 396.794 87.1846 394.694 85.8174C392.595 84.4502 389.909 83.7666 386.638 83.7666C383.854 83.7666 381.462 84.377 379.46 85.5977C377.458 86.8184 375.822 88.5273 374.553 90.7246C373.332 92.9219 372.404 95.5098 371.77 98.4883C371.184 101.418 370.891 104.641 370.891 108.156V111.086C370.891 114.26 371.33 117.189 372.209 119.875C373.137 122.561 374.431 124.88 376.091 126.833C377.8 128.786 379.851 130.3 382.243 131.374C384.685 132.448 387.443 132.985 390.52 132.985C394.328 132.985 397.868 132.253 401.14 130.788C404.46 129.274 407.316 127.004 409.709 123.977L419.963 135.109C418.303 137.502 416.032 139.797 413.151 141.994C410.319 144.191 406.901 145.998 402.897 147.414C398.894 148.781 394.328 149.465 389.201 149.465ZM422.863 109.182V107.644C422.863 101.833 423.693 96.4863 425.354 91.6035C427.014 86.6719 429.431 82.3994 432.604 78.7861C435.778 75.1729 439.685 72.3652 444.323 70.3633C448.962 68.3125 454.284 67.2871 460.29 67.2871C466.296 67.2871 471.643 68.3125 476.33 70.3633C481.018 72.3652 484.948 75.1729 488.122 78.7861C491.345 82.3994 493.786 86.6719 495.446 91.6035C497.106 96.4863 497.937 101.833 497.937 107.644V109.182C497.937 114.943 497.106 120.29 495.446 125.222C493.786 130.104 491.345 134.377 488.122 138.039C484.948 141.652 481.042 144.46 476.403 146.462C471.765 148.464 466.442 149.465 460.437 149.465C454.431 149.465 449.084 148.464 444.396 146.462C439.758 144.46 435.827 141.652 432.604 138.039C429.431 134.377 427.014 130.104 425.354 125.222C423.693 120.29 422.863 114.943 422.863 109.182ZM443.957 107.644V109.182C443.957 112.502 444.25 115.603 444.836 118.483C445.422 121.364 446.35 123.903 447.619 126.101C448.938 128.249 450.646 129.934 452.746 131.154C454.846 132.375 457.409 132.985 460.437 132.985C463.366 132.985 465.881 132.375 467.98 131.154C470.08 129.934 471.765 128.249 473.034 126.101C474.304 123.903 475.231 121.364 475.817 118.483C476.452 115.603 476.77 112.502 476.77 109.182V107.644C476.77 104.421 476.452 101.394 475.817 98.5615C475.231 95.6807 474.279 93.1416 472.961 90.9443C471.691 88.6982 470.007 86.9404 467.907 85.6709C465.808 84.4014 463.269 83.7666 460.29 83.7666C457.312 83.7666 454.772 84.4014 452.673 85.6709C450.622 86.9404 448.938 88.6982 447.619 90.9443C446.35 93.1416 445.422 95.6807 444.836 98.5615C444.25 101.394 443.957 104.421 443.957 107.644Z" fill="url(#paint3_linear_77_15)"/>
<path d="M168.977 130.129V94.8262C168.977 92.2871 168.562 90.1143 167.731 88.3076C166.901 86.4521 165.607 85.0117 163.85 83.9863C162.141 82.9609 159.919 82.4482 157.185 82.4482C154.841 82.4482 152.814 82.8633 151.105 83.6934C149.396 84.4746 148.078 85.6221 147.15 87.1357C146.223 88.6006 145.759 90.334 145.759 92.3359H124.665C124.665 88.9668 125.446 85.7686 127.009 82.7412C128.571 79.7139 130.842 77.0527 133.82 74.7578C136.799 72.4141 140.339 70.583 144.44 69.2646C148.591 67.9463 153.229 67.2871 158.356 67.2871C164.509 67.2871 169.978 68.3125 174.763 70.3633C179.548 72.4141 183.308 75.4902 186.042 79.5918C188.825 83.6934 190.217 88.8203 190.217 94.9727V128.884C190.217 133.229 190.485 136.794 191.022 139.577C191.56 142.312 192.341 144.704 193.366 146.755V148H172.053C171.027 145.852 170.246 143.166 169.709 139.943C169.221 136.672 168.977 133.4 168.977 130.129ZM171.76 99.7334L171.906 111.672H160.114C157.331 111.672 154.914 111.989 152.863 112.624C150.812 113.259 149.128 114.162 147.81 115.334C146.491 116.457 145.515 117.775 144.88 119.289C144.294 120.803 144.001 122.463 144.001 124.27C144.001 126.076 144.416 127.712 145.246 129.177C146.076 130.593 147.272 131.716 148.835 132.546C150.397 133.327 152.229 133.718 154.328 133.718C157.502 133.718 160.261 133.083 162.604 131.813C164.948 130.544 166.755 128.981 168.024 127.126C169.343 125.271 170.026 123.513 170.075 121.853L175.642 130.788C174.86 132.79 173.786 134.865 172.419 137.014C171.101 139.162 169.416 141.188 167.365 143.093C165.314 144.948 162.849 146.486 159.968 147.707C157.087 148.879 153.669 149.465 149.714 149.465C144.685 149.465 140.119 148.464 136.018 146.462C131.965 144.411 128.742 141.604 126.35 138.039C124.006 134.426 122.834 130.324 122.834 125.734C122.834 121.584 123.615 117.897 125.178 114.675C126.74 111.452 129.035 108.742 132.062 106.545C135.139 104.299 138.972 102.614 143.562 101.491C148.151 100.319 153.474 99.7334 159.528 99.7334H171.76ZM245.778 178.469V84.9385L248.488 68.752H267.019V178.469H245.778ZM195.681 109.182V107.644C195.681 101.589 196.34 96.0957 197.658 91.1641C199.025 86.1836 201.027 81.9355 203.664 78.4199C206.301 74.8555 209.523 72.1211 213.332 70.2168C217.189 68.2637 221.633 67.2871 226.662 67.2871C231.496 67.2871 235.671 68.2637 239.187 70.2168C242.702 72.1699 245.656 74.9287 248.049 78.4932C250.49 82.0576 252.443 86.2568 253.908 91.0908C255.373 95.9248 256.496 101.223 257.277 106.984V110.354C256.545 115.871 255.422 120.998 253.908 125.734C252.443 130.471 250.49 134.621 248.049 138.186C245.656 141.75 242.678 144.533 239.113 146.535C235.598 148.488 231.398 149.465 226.516 149.465C221.584 149.465 217.189 148.464 213.332 146.462C209.523 144.411 206.301 141.579 203.664 137.966C201.027 134.353 199.025 130.104 197.658 125.222C196.34 120.29 195.681 114.943 195.681 109.182ZM216.774 107.644V109.182C216.774 112.453 217.043 115.529 217.58 118.41C218.117 121.242 218.972 123.757 220.144 125.954C221.364 128.151 222.927 129.885 224.831 131.154C226.735 132.375 229.079 132.985 231.862 132.985C235.72 132.985 238.82 132.155 241.164 130.495C243.557 128.786 245.314 126.467 246.438 123.537C247.609 120.607 248.293 117.263 248.488 113.503V103.908C248.342 100.832 247.927 98.0732 247.243 95.6318C246.608 93.1416 245.632 91.0176 244.313 89.2598C243.044 87.502 241.384 86.1592 239.333 85.2314C237.331 84.2549 234.89 83.7666 232.009 83.7666C229.274 83.7666 226.931 84.377 224.978 85.5977C223.024 86.8184 221.438 88.5273 220.217 90.7246C219.045 92.873 218.166 95.3877 217.58 98.2686C217.043 101.149 216.774 104.274 216.774 107.644ZM296.799 85.6709V148H275.705V68.752H295.48L296.799 85.6709ZM293.723 105.593H288.01C288.01 99.7334 288.767 94.46 290.28 89.7725C291.794 85.0361 293.918 81.0078 296.652 77.6875C299.387 74.3184 302.634 71.7549 306.394 69.9971C310.202 68.1904 314.45 67.2871 319.138 67.2871C322.849 67.2871 326.242 67.8242 329.318 68.8984C332.395 69.9727 335.031 71.6816 337.229 74.0254C339.475 76.3691 341.184 79.4697 342.355 83.3271C343.576 87.1846 344.187 91.8965 344.187 97.4629V148H322.946V97.3896C322.946 93.874 322.458 91.1396 321.481 89.1865C320.505 87.2334 319.064 85.8662 317.16 85.085C315.305 84.2549 313.01 83.8398 310.275 83.8398C307.443 83.8398 304.978 84.4014 302.878 85.5244C300.827 86.6475 299.118 88.21 297.751 90.2119C296.433 92.165 295.432 94.46 294.748 97.0967C294.064 99.7334 293.723 102.565 293.723 105.593ZM389.201 149.465C383.049 149.465 377.531 148.488 372.648 146.535C367.766 144.533 363.615 141.774 360.197 138.259C356.828 134.743 354.24 130.666 352.434 126.027C350.627 121.34 349.724 116.359 349.724 111.086V108.156C349.724 102.15 350.578 96.6572 352.287 91.6768C353.996 86.6963 356.438 82.375 359.611 78.7129C362.834 75.0508 366.74 72.2432 371.33 70.29C375.92 68.2881 381.096 67.2871 386.857 67.2871C392.473 67.2871 397.453 68.2148 401.799 70.0703C406.145 71.9258 409.782 74.5625 412.712 77.9805C415.69 81.3984 417.937 85.5 419.45 90.2852C420.964 95.0215 421.721 100.295 421.721 106.105V114.895H358.732V100.832H400.993V99.2207C400.993 96.291 400.456 93.6787 399.382 91.3838C398.356 89.04 396.794 87.1846 394.694 85.8174C392.595 84.4502 389.909 83.7666 386.638 83.7666C383.854 83.7666 381.462 84.377 379.46 85.5977C377.458 86.8184 375.822 88.5273 374.553 90.7246C373.332 92.9219 372.404 95.5098 371.77 98.4883C371.184 101.418 370.891 104.641 370.891 108.156V111.086C370.891 114.26 371.33 117.189 372.209 119.875C373.137 122.561 374.431 124.88 376.091 126.833C377.8 128.786 379.851 130.3 382.243 131.374C384.685 132.448 387.443 132.985 390.52 132.985C394.328 132.985 397.868 132.253 401.14 130.788C404.46 129.274 407.316 127.004 409.709 123.977L419.963 135.109C418.303 137.502 416.032 139.797 413.151 141.994C410.319 144.191 406.901 145.998 402.897 147.414C398.894 148.781 394.328 149.465 389.201 149.465ZM422.863 109.182V107.644C422.863 101.833 423.693 96.4863 425.354 91.6035C427.014 86.6719 429.431 82.3994 432.604 78.7861C435.778 75.1729 439.685 72.3652 444.323 70.3633C448.962 68.3125 454.284 67.2871 460.29 67.2871C466.296 67.2871 471.643 68.3125 476.33 70.3633C481.018 72.3652 484.948 75.1729 488.122 78.7861C491.345 82.3994 493.786 86.6719 495.446 91.6035C497.106 96.4863 497.937 101.833 497.937 107.644V109.182C497.937 114.943 497.106 120.29 495.446 125.222C493.786 130.104 491.345 134.377 488.122 138.039C484.948 141.652 481.042 144.46 476.403 146.462C471.765 148.464 466.442 149.465 460.437 149.465C454.431 149.465 449.084 148.464 444.396 146.462C439.758 144.46 435.827 141.652 432.604 138.039C429.431 134.377 427.014 130.104 425.354 125.222C423.693 120.29 422.863 114.943 422.863 109.182ZM443.957 107.644V109.182C443.957 112.502 444.25 115.603 444.836 118.483C445.422 121.364 446.35 123.903 447.619 126.101C448.938 128.249 450.646 129.934 452.746 131.154C454.846 132.375 457.409 132.985 460.437 132.985C463.366 132.985 465.881 132.375 467.98 131.154C470.08 129.934 471.765 128.249 473.034 126.101C474.304 123.903 475.231 121.364 475.817 118.483C476.452 115.603 476.77 112.502 476.77 109.182V107.644C476.77 104.421 476.452 101.394 475.817 98.5615C475.231 95.6807 474.279 93.1416 472.961 90.9443C471.691 88.6982 470.007 86.9404 467.907 85.6709C465.808 84.4014 463.269 83.7666 460.29 83.7666C457.312 83.7666 454.772 84.4014 452.673 85.6709C450.622 86.9404 448.938 88.6982 447.619 90.9443C446.35 93.1416 445.422 95.6807 444.836 98.5615C444.25 101.394 443.957 104.421 443.957 107.644Z" fill="url(#paint4_linear_77_15)" fill-opacity="0.2"/>
<defs>
<linearGradient id="paint0_linear_77_15" x1="69.5" y1="123.5" x2="88.7831" y2="48.6117" gradientUnits="userSpaceOnUse">
<stop stop-color="#D7FFAF"/>
<stop offset="0.460602" stop-color="#8BDFD7"/>
<stop offset="1" stop-color="#3FBFFF"/>
</linearGradient>
<linearGradient id="paint1_linear_77_15" x1="120.5" y1="30.5" x2="51.5351" y2="-18.7542" gradientUnits="userSpaceOnUse">
<stop stop-color="#D7FFAF"/>
<stop offset="0.440209" stop-color="#8BDFD7"/>
<stop offset="1" stop-color="#3FBFFF"/>
</linearGradient>
<linearGradient id="paint2_linear_77_15" x1="98.287" y1="26.5" x2="35.7611" y2="59.425" gradientUnits="userSpaceOnUse">
<stop stop-color="#47C2FA"/>
<stop offset="1" stop-color="#9BFF37"/>
</linearGradient>
<linearGradient id="paint3_linear_77_15" x1="393.5" y1="15.9091" x2="166.525" y2="410.936" gradientUnits="userSpaceOnUse">
<stop stop-color="#47C2FA"/>
<stop offset="0.5" stop-color="#D7FFAF"/>
<stop offset="1" stop-color="#9BFF37"/>
</linearGradient>
<linearGradient id="paint4_linear_77_15" x1="287" y1="16.3011" x2="438.626" y2="357.201" gradientUnits="userSpaceOnUse">
<stop stop-color="#47C2FA"/>
<stop offset="0.5" stop-color="#D7FFAF"/>
<stop offset="1" stop-color="#9BFF37"/>
</linearGradient>
</defs>
</svg>
